<svg width="114" height="59" viewBox="0 0 114 59" fill="none" xmlns="http://www.w3.org/2000/svg">
<path d="M1.74805 1.63477H8.94531V3.05078H3.17383V7.54297H8.94531V8.95898H3.17383V16H1.74805V1.63477ZM16.4598 5.10156C18.0939 5.10156 19.448 5.69401 20.5223 6.87891C21.4988 7.95964 21.9871 9.23893 21.9871 10.7168C21.9871 12.2012 21.4695 13.5 20.4344 14.6133C19.4057 15.7201 18.0809 16.2734 16.4598 16.2734C14.8322 16.2734 13.5008 15.7201 12.4656 14.6133C11.437 13.5 10.9227 12.2012 10.9227 10.7168C10.9227 9.24544 11.4109 7.9694 12.3875 6.88867C13.4617 5.69727 14.8191 5.10156 16.4598 5.10156ZM16.4598 6.43945C15.327 6.43945 14.3536 6.85938 13.5398 7.69922C12.726 8.53906 12.3191 9.55469 12.3191 10.7461C12.3191 11.5143 12.5047 12.2305 12.8758 12.8945C13.2469 13.5586 13.7482 14.0729 14.3797 14.4375C15.0112 14.7956 15.7046 14.9746 16.4598 14.9746C17.215 14.9746 17.9083 14.7956 18.5398 14.4375C19.1714 14.0729 19.6727 13.5586 20.0437 12.8945C20.4148 12.2305 20.6004 11.5143 20.6004 10.7461C20.6004 9.55469 20.1902 8.53906 19.3699 7.69922C18.5561 6.85938 17.5861 6.43945 16.4598 6.43945ZM24.5309 1.27344H25.898V16H24.5309V1.27344ZM28.7348 1.27344H30.102V16H28.7348V1.27344ZM38.173 5.10156C39.8072 5.10156 41.1613 5.69401 42.2355 6.87891C43.2121 7.95964 43.7004 9.23893 43.7004 10.7168C43.7004 12.2012 43.1828 13.5 42.1477 14.6133C41.119 15.7201 39.7941 16.2734 38.173 16.2734C36.5454 16.2734 35.2141 15.7201 34.1789 14.6133C33.1503 13.5 32.6359 12.2012 32.6359 10.7168C32.6359 9.24544 33.1242 7.9694 34.1008 6.88867C35.175 5.69727 36.5324 5.10156 38.173 5.10156ZM38.173 6.43945C37.0402 6.43945 36.0669 6.85938 35.2531 7.69922C34.4393 8.53906 34.0324 9.55469 34.0324 10.7461C34.0324 11.5143 34.218 12.2305 34.5891 12.8945C34.9602 13.5586 35.4615 14.0729 36.093 14.4375C36.7245 14.7956 37.4178 14.9746 38.173 14.9746C38.9283 14.9746 39.6216 14.7956 40.2531 14.4375C40.8846 14.0729 41.3859 13.5586 41.757 12.8945C42.1281 12.2305 42.3137 11.5143 42.3137 10.7461C42.3137 9.55469 41.9035 8.53906 41.0832 7.69922C40.2694 6.85938 39.2993 6.43945 38.173 6.43945ZM45.0137 5.375H46.4199L49.6719 13.0898L53.0801 5.375H53.3242L56.7227 13.0898L60.0332 5.375H61.459L56.8496 16H56.5859L53.207 8.39258L49.7988 16H49.5449L45.0137 5.375ZM69.2906 1.63477H70.7262V10.3066C70.7262 11.3353 70.7457 11.9766 70.7848 12.2305C70.8564 12.7969 71.0224 13.2721 71.2828 13.6562C71.5432 14.0339 71.9436 14.3529 72.484 14.6133C73.0244 14.8672 73.568 14.9941 74.1148 14.9941C74.5901 14.9941 75.0458 14.8932 75.482 14.6914C75.9182 14.4896 76.2828 14.2096 76.5758 13.8516C76.8688 13.4935 77.0836 13.0605 77.2203 12.5527C77.318 12.1882 77.3668 11.4395 77.3668 10.3066V1.63477H78.8023V10.3066C78.8023 11.5892 78.6754 12.6276 78.4215 13.4219C78.1741 14.2096 77.6728 14.8965 76.9176 15.4824C76.1689 16.0684 75.2607 16.3613 74.193 16.3613C73.0341 16.3613 72.0413 16.0846 71.2145 15.5312C70.3876 14.9779 69.8342 14.2454 69.5543 13.334C69.3785 12.7741 69.2906 11.765 69.2906 10.3066V1.63477ZM87.6645 6.53711L86.7855 7.44531C86.0564 6.73568 85.3435 6.38086 84.6469 6.38086C84.2042 6.38086 83.8233 6.52734 83.5043 6.82031C83.1918 7.11328 83.0355 7.45508 83.0355 7.8457C83.0355 8.19076 83.1658 8.51953 83.4262 8.83203C83.6866 9.15104 84.2335 9.52539 85.0668 9.95508C86.0824 10.4824 86.7725 10.9902 87.1371 11.4785C87.4952 11.9733 87.6742 12.5299 87.6742 13.1484C87.6742 14.0208 87.3682 14.7598 86.7562 15.3652C86.1443 15.9707 85.3793 16.2734 84.4613 16.2734C83.8493 16.2734 83.2634 16.14 82.7035 15.873C82.1501 15.6061 81.6911 15.2383 81.3266 14.7695L82.1859 13.793C82.8826 14.5807 83.6215 14.9746 84.4027 14.9746C84.9496 14.9746 85.4151 14.7988 85.7992 14.4473C86.1833 14.0957 86.3754 13.6823 86.3754 13.207C86.3754 12.8164 86.2484 12.4681 85.9945 12.1621C85.7406 11.8626 85.1677 11.485 84.2758 11.0293C83.3187 10.5345 82.6677 10.0462 82.3227 9.56445C81.9776 9.08268 81.8051 8.53255 81.8051 7.91406C81.8051 7.10677 82.0785 6.4362 82.6254 5.90234C83.1788 5.36849 83.8754 5.10156 84.7152 5.10156C85.6918 5.10156 86.6749 5.58008 87.6645 6.53711Z" fill="white"/>
<path d="M17.9835 40.6529H22V37.1549C21.3071 37.1072 18.9239 37 16.1485 37C10.3575 37 6.39047 38.8214 6.39047 42.1691V45.25H0V49.1605H6.39047V59H14.2255V49.1614H20.3575L21.3309 45.2509H14.2236V42.5568C14.2255 41.4266 14.8341 40.6529 17.9835 40.6529Z" fill="white"/>
<path d="M67.9945 59V58.9991H68V50.9306C68 46.9834 67.1502 43.9428 62.5357 43.9428C60.3174 43.9428 58.8288 45.1601 58.221 46.3142H58.1568V44.3113H53.7816V58.9991H58.3374V51.7262C58.3374 49.8113 58.7004 47.9596 61.0718 47.9596C63.4084 47.9596 63.4432 50.145 63.4432 51.8491V59H67.9945Z" fill="white"/>
<path d="M46.363 44.3123H50.9244V59H46.363V44.3123Z" fill="white"/>
<path d="M48.6418 37C47.1834 37 46 38.1834 46 39.6418C46 41.1003 47.1834 42.3084 48.6418 42.3084C50.1002 42.3084 51.2836 41.1003 51.2836 39.6418C51.2827 38.1834 50.0993 37 48.6418 37V37Z" fill="white"/>
<path d="M113.944 43.4681C113.893 42.2991 113.703 41.4955 113.433 40.7991C113.153 40.0599 112.723 39.3982 112.16 38.848C111.61 38.2893 110.944 37.8552 110.213 37.5802C109.512 37.3094 108.713 37.1204 107.544 37.0688C106.366 37.0129 105.992 37 103.004 37C100.017 37 99.6429 37.0129 98.4693 37.0645C97.3001 37.116 96.4963 37.3052 95.8 37.5758C95.0605 37.8552 94.3986 38.285 93.8484 38.848C93.2896 39.3982 92.8555 40.0643 92.5803 40.7949C92.3095 41.4955 92.1204 42.2948 92.0688 43.4637C92.0129 44.6414 92 45.0153 92 48.0022C92 50.9891 92.0129 51.363 92.0645 52.5363C92.116 53.7052 92.3053 54.5089 92.5761 55.2052C92.8555 55.9444 93.2896 56.6062 93.8484 57.1563C94.3986 57.715 95.0649 58.1492 95.7957 58.4242C96.4963 58.695 97.2958 58.884 98.4651 58.9355C99.6385 58.9872 100.013 59 103 59C105.988 59 106.362 58.9872 107.535 58.9355C108.704 58.884 109.508 58.695 110.204 58.4242C111.683 57.8525 112.852 56.6836 113.424 55.2052C113.695 54.5047 113.884 53.7052 113.936 52.5363C113.987 51.363 114 50.9891 114 48.0022C114 45.0153 113.996 44.6414 113.944 43.4681ZM111.963 52.4503C111.915 53.5248 111.735 54.105 111.584 54.4918C111.215 55.4502 110.454 56.2108 109.495 56.5805C109.108 56.7309 108.524 56.9114 107.453 56.9586C106.293 57.0103 105.945 57.023 103.009 57.023C100.073 57.023 99.7203 57.0103 98.5638 56.9586C97.4892 56.9114 96.9089 56.7309 96.522 56.5805C96.045 56.4042 95.6108 56.1249 95.2583 55.7596C94.893 55.4028 94.6136 54.9731 94.4372 54.4961C94.2868 54.1093 94.1063 53.5248 94.0591 52.4547C94.0074 51.2943 93.9946 50.9461 93.9946 48.0107C93.9946 45.0754 94.0074 44.723 94.0591 43.567C94.1063 42.4925 94.2868 41.9123 94.4372 41.5255C94.6136 41.0484 94.893 40.6145 95.2627 40.2619C95.6193 39.8966 96.0492 39.6172 96.5264 39.4411C96.9133 39.2907 97.4979 39.1103 98.5682 39.0629C99.7288 39.0114 100.077 38.9984 103.013 38.9984C105.953 38.9984 106.301 39.0114 107.458 39.0629C108.532 39.1103 109.113 39.2907 109.499 39.4411C109.976 39.6172 110.411 39.8966 110.763 40.2619C111.129 40.6187 111.408 41.0484 111.584 41.5255C111.735 41.9123 111.915 42.4967 111.963 43.567C112.014 44.7273 112.027 45.0754 112.027 48.0107C112.027 50.9461 112.014 51.2899 111.963 52.4503Z" fill="white"/>
<path d="M103.004 42.3507C99.8836 42.3507 97.3517 44.882 97.3517 48.0022C97.3517 51.1224 99.8836 53.6537 103.004 53.6537C106.125 53.6537 108.657 51.1224 108.657 48.0022C108.657 44.882 106.125 42.3507 103.004 42.3507ZM103.004 51.6682C100.98 51.6682 99.3376 50.0265 99.3376 48.0022C99.3376 45.9779 100.98 44.3362 103.004 44.3362C105.029 44.3362 106.671 45.9779 106.671 48.0022C106.671 50.0265 105.029 51.6682 103.004 51.6682Z" fill="white"/>
<path d="M110.2 42.1273C110.2 42.8559 109.609 43.4467 108.88 43.4467C108.152 43.4467 107.561 42.8559 107.561 42.1273C107.561 41.3985 108.152 40.8079 108.88 40.8079C109.609 40.8079 110.2 41.3985 110.2 42.1273Z" fill="white"/>
</svg>
